<svg width="128" height="128" viewBox="0 0 64 64" fill="none" xmlns="http://www.w3.org/2000/svg">
<path d="M32.7045 63.5098C32.8883 63.5098 33.0142 63.5191 33.1494 63.5098C33.872 63.4499 34.5874 63.4066 35.3038 63.3178C38.6638 62.9183 41.8627 61.9614 44.9471 60.572C47.7734 59.3002 49.9732 57.3792 51.3471 54.5787C52.7923 51.6275 52.9254 48.5524 52.048 45.4205C51.3605 42.9678 50.1125 40.7898 48.6199 38.7521C45.9938 35.166 42.9352 31.9702 39.6392 29.0024C37.615 27.1815 35.535 25.4215 33.5407 23.5686C31.6114 21.7766 29.8761 19.8019 28.6385 17.4546C28.2441 16.7041 27.8715 15.8927 27.7321 15.069C27.4565 13.4298 28.0284 11.9454 28.9709 10.6189C30.414 8.56681 32.3752 7.12165 34.6596 6.11932C38.6369 4.37274 42.7691 4.07236 47.0065 4.89094C47.2521 4.93842 47.4999 4.97868 47.8034 5.03236C47.7404 4.93739 47.728 4.89816 47.7002 4.88062C47.6186 4.82384 47.5319 4.77739 47.4472 4.72371C45.8273 3.77254 44.1226 2.9736 42.3551 2.33713C37.8297 0.693776 33.1783 0.0434534 28.3856 0.618421C24.751 1.05507 21.3218 2.13687 18.1734 4.04139C16.5053 5.05094 15.0488 6.29894 13.9257 7.9041C12.766 9.55255 12.1066 11.5005 12.0263 13.5144C11.9334 15.4045 12.0263 17.2729 12.5321 19.0979C13.2971 21.8561 14.7546 24.2478 16.5724 26.4269C18.2395 28.4244 20.0583 30.2783 21.9494 32.0662C25.7688 35.6698 29.5128 39.3456 32.7489 43.5005C34.6731 45.9707 36.4434 48.5369 37.552 51.4964C38.0764 52.8992 38.3665 54.3485 38.1394 55.8504C37.7791 58.2246 36.6715 60.2231 34.8981 61.8293C34.2426 62.4249 33.488 62.9162 32.7045 63.5098ZM10.9043 21.1129C10.8211 21.1425 10.7398 21.1769 10.6607 21.2161C7.98918 22.7366 5.71615 24.7155 4.08002 27.324C0.570342 32.9106 0.0170518 38.8471 2.29731 45.0127C4.1946 50.1534 7.48544 54.2515 12.0067 57.3565C14.7752 59.26 17.7946 60.6391 20.9616 61.7291C23.1035 62.4651 25.2774 62.9007 27.5505 62.6891C30.4511 62.4197 32.8955 61.2842 34.6462 58.8832C35.472 57.757 35.9809 56.4915 36.0449 55.0855C36.0914 54.078 36.1327 54.2164 35.1902 54.1565C32.1512 53.9697 29.1598 53.5247 26.2581 52.5689C23.1128 51.5366 20.2349 50.0337 17.8338 47.709C15.7487 45.692 14.2632 43.3188 13.5799 40.478C12.9802 37.9851 13.0565 35.5232 13.968 33.1046C14.4307 31.8794 15.1297 30.757 16.0253 29.8014C16.2792 29.5289 16.2958 29.3503 16.0253 29.1026C15.8399 28.919 15.6674 28.7227 15.5092 28.5152C13.9845 26.6871 12.5497 24.7991 11.5556 22.6138C11.3316 22.1348 11.1293 21.6404 10.9043 21.1129ZM33.3879 9.28526L33.423 9.40913C33.5758 9.44836 33.7327 9.49378 33.8813 9.52475C35.8076 9.91634 37.6944 10.4819 39.5185 11.2146C43.4524 12.7629 46.9858 14.9369 49.9236 18.0182C51.5412 19.7162 52.8996 21.6011 53.7956 23.774C54.9745 26.6344 55.7703 29.6146 56.2906 32.6638C56.4702 33.7188 56.6003 34.7903 56.3143 35.8473C56.2328 36.1508 56.305 36.2602 56.5662 36.3748C59.3533 37.6063 63.0127 35.708 63.1365 32.3057C63.2078 30.3598 63.0168 28.4254 62.6751 26.5157C61.8493 21.8706 60.048 17.6249 57.358 13.7384C55.7507 11.4148 53.7254 9.64345 51.1644 8.47391C48.5214 7.26139 45.648 6.63325 42.7401 6.63236C39.886 6.61997 37.1567 7.18462 34.6225 8.5441C34.1951 8.76604 33.7977 9.03545 33.3879 9.28526ZM31.1469 17.7921L31.0983 17.8881C31.157 17.9936 31.2233 18.0946 31.2965 18.1906C32.0305 19.0329 32.7066 19.9382 33.519 20.6979C35.2439 22.3113 37.0462 23.8411 38.8011 25.4226C39.1644 25.7498 39.5773 25.9294 40.0222 26.1007C41.4374 26.6458 42.8681 27.1609 44.239 27.8029C47.789 29.4781 51.0633 31.6838 53.9494 34.3444C54.0403 34.4269 54.1435 34.4961 54.3035 34.62C54.3035 34.4249 54.3118 34.3268 54.3035 34.2308C54.0361 31.5026 53.3094 28.8816 52.4454 26.2938C52.3802 26.1477 52.2794 26.0203 52.1523 25.9232C50.6669 24.6184 49.006 23.5686 47.2625 22.654C42.5647 20.189 37.551 18.7129 32.3174 17.9449C31.9293 17.8881 31.5371 17.8427 31.1469 17.7921Z" fill="#05F2AF"/>
</svg>
