<svg width="128" height="128" viewBox="0 0 128 128" fill="none" xmlns="http://www.w3.org/2000/svg">
<path d="M65.4091 127.02C65.7766 127.02 66.0284 127.038 66.2989 127.02C67.744 126.9 69.1748 126.813 70.6075 126.636C77.3275 125.837 83.7255 123.923 89.8942 121.144C95.5469 118.6 99.9464 114.758 102.694 109.157C105.585 103.255 105.851 97.1047 104.096 90.841C102.721 85.9357 100.225 81.5796 97.2398 77.5042C91.9877 70.3321 85.8705 63.9403 79.2785 58.0048C75.23 54.363 71.07 50.843 67.0813 47.1372C63.2227 43.5532 59.7523 39.6038 57.2769 34.9091C56.4883 33.4082 55.743 31.7855 55.4643 30.138C54.9131 26.8596 56.0568 23.8908 57.9417 21.2379C60.8279 17.1336 64.7505 14.2433 69.3193 12.2386C77.2738 8.74549 85.5381 8.14471 94.0129 9.78188C94.5043 9.87684 94.9998 9.95736 95.6068 10.0647C95.4808 9.87478 95.456 9.79633 95.4003 9.76123C95.2372 9.64768 95.0638 9.55478 94.8945 9.44742C91.6545 7.54509 88.2452 5.9472 84.7102 4.67426C75.6594 1.38755 66.3567 0.0869069 56.7711 1.23684C49.502 2.11013 42.6437 4.27375 36.3469 8.08278C33.0106 10.1019 30.0976 12.5979 27.8514 15.8082C25.5321 19.1051 24.2131 23.0011 24.0527 27.0288C23.8669 30.809 24.0527 34.5457 25.0643 38.1958C26.5941 43.7122 29.5092 48.4957 33.1448 52.8539C36.479 56.8487 40.1167 60.5566 43.8989 64.1323C51.5376 71.3396 59.0256 78.6913 65.4978 87.001C69.3461 91.9414 72.8868 97.0737 75.104 102.993C76.1528 105.798 76.733 108.697 76.2788 111.701C75.5582 116.449 73.343 120.446 69.7962 123.659C68.4852 124.85 66.976 125.832 65.4091 127.02ZM21.8086 42.2257C21.6422 42.2849 21.4795 42.3539 21.3213 42.4322C15.9784 45.4732 11.4323 49.4309 8.16004 54.6479C1.14068 65.8211 0.0341035 77.6941 4.59462 90.0255C8.3892 100.307 14.9709 108.503 24.0135 114.713C29.5505 118.52 35.5892 121.278 41.9231 123.458C46.207 124.93 50.5549 125.801 55.1009 125.378C60.9022 124.839 65.791 122.568 69.2924 117.766C70.944 115.514 71.9618 112.983 72.0898 110.171C72.1827 108.156 72.2653 108.433 70.3804 108.313C64.3025 107.939 58.3195 107.049 52.5162 105.138C46.2256 103.073 40.4697 100.067 35.6677 95.418C31.4973 91.3839 28.5265 86.6376 27.1598 80.9561C25.9603 75.9703 26.1131 71.0464 27.936 66.2092C28.8614 63.7587 30.2594 61.514 32.0506 59.6028C32.5585 59.0578 32.5915 58.7006 32.0506 58.2051C31.6797 57.8379 31.3348 57.4454 31.0184 57.0304C27.9691 53.3741 25.0994 49.5981 23.1113 45.2276C22.6633 44.2696 22.2586 43.2807 21.8086 42.2257ZM66.7758 18.5705L66.846 18.8183C67.1515 18.8967 67.4653 18.9876 67.7626 19.0495C71.6152 19.8327 75.3888 20.9639 79.0369 22.4291C86.9048 25.5259 93.9717 29.8737 99.8473 36.0363C103.082 39.4325 105.799 43.2023 107.591 47.5481C109.949 53.2688 111.541 59.2291 112.581 65.3277C112.94 67.4376 113.201 69.5806 112.629 71.6947C112.466 72.3016 112.61 72.5205 113.132 72.7496C118.707 75.2126 126.025 71.4159 126.273 64.6113C126.416 60.7197 126.034 56.8508 125.35 53.0314C123.699 43.7411 120.096 35.2497 114.716 27.4768C111.501 22.8296 107.451 19.2869 102.329 16.9478C97.0429 14.5228 91.296 13.2665 85.4803 13.2647C79.7719 13.2399 74.3133 14.3692 69.2449 17.0882C68.3902 17.5321 67.5954 18.0709 66.7758 18.5705ZM62.2937 35.5842L62.1967 35.7762C62.314 35.9871 62.4465 36.1893 62.5931 36.3811C64.0609 38.0657 65.4132 39.8763 67.038 41.3958C70.4878 44.6226 74.0924 47.6823 77.6021 50.8451C78.3288 51.4996 79.1546 51.8588 80.0444 52.2015C82.8749 53.2916 85.7363 54.3218 88.478 55.6059C95.5779 58.9562 102.127 63.3676 107.899 68.6887C108.081 68.8539 108.287 68.9922 108.607 69.2399C108.607 68.8498 108.624 68.6536 108.607 68.4616C108.072 63.0051 106.619 57.7633 104.891 52.5876C104.76 52.2955 104.559 52.0407 104.305 51.8464C101.334 49.2368 98.0119 47.1372 94.5249 45.3081C85.1293 40.378 75.102 37.4257 64.6349 35.8897C63.8586 35.7762 63.0741 35.6854 62.2937 35.5842Z" fill="#05F2AF"/>
</svg>
