<svg width="603" height="612" viewBox="0 0 603 612" fill="none" xmlns="http://www.w3.org/2000/svg">
<path d="M307.826 611.25C309.606 611.25 310.826 611.34 312.136 611.25C319.136 610.67 326.066 610.25 333.006 609.39C365.556 605.52 396.546 596.25 426.426 582.79C453.806 570.47 475.116 551.86 488.426 524.73C502.426 496.14 503.716 466.35 495.216 436.01C488.556 412.25 476.466 391.15 462.006 371.41C436.566 336.67 406.936 305.71 375.006 276.96C355.396 259.32 335.246 242.27 315.926 224.32C297.236 206.96 280.426 187.83 268.436 165.09C264.616 157.82 261.006 149.96 259.656 141.98C256.986 126.1 262.526 111.72 271.656 98.8704C285.636 78.9904 304.636 64.9904 326.766 55.2804C365.296 38.3604 405.326 35.4504 446.376 43.3804C448.756 43.8404 451.156 44.2304 454.096 44.7504C453.486 43.8304 453.366 43.4504 453.096 43.2804C452.306 42.7304 451.466 42.2804 450.646 41.7604C434.952 32.5459 418.438 24.8061 401.316 18.6404C357.476 2.72037 312.416 -3.57963 265.986 1.99037C230.776 6.22037 197.556 16.7004 167.056 35.1504C150.896 44.9304 136.786 57.0204 125.906 72.5704C114.672 88.5397 108.283 107.411 107.506 126.92C106.606 145.23 107.506 163.33 112.406 181.01C119.816 207.73 133.936 230.9 151.546 252.01C167.696 271.36 185.316 289.32 203.636 306.64C240.636 341.55 276.906 377.16 308.256 417.41C326.896 441.34 344.046 466.2 354.786 494.87C359.866 508.46 362.676 522.5 360.476 537.05C356.986 560.05 346.256 579.41 329.076 594.97C322.726 600.74 315.416 605.5 307.826 611.25ZM96.6359 200.53C95.8303 200.817 95.0423 201.151 94.276 201.53C68.396 216.26 46.3759 235.43 30.5259 260.7C-3.47406 314.82 -8.83406 372.33 13.2559 432.06C31.6359 481.86 63.5159 521.56 107.316 551.64C134.136 570.08 163.386 583.44 194.066 594C214.816 601.13 235.876 605.35 257.896 603.3C285.996 600.69 309.676 589.69 326.636 566.43C334.636 555.52 339.566 543.26 340.186 529.64C340.636 519.88 341.036 521.22 331.906 520.64C302.466 518.83 273.486 514.52 245.376 505.26C214.906 495.26 187.026 480.7 163.766 458.18C143.566 438.64 129.176 415.65 122.556 388.13C116.746 363.98 117.486 340.13 126.316 316.7C130.798 304.831 137.57 293.958 146.246 284.7C148.706 282.06 148.866 280.33 146.246 277.93C144.45 276.152 142.779 274.251 141.246 272.24C126.476 254.53 112.576 236.24 102.946 215.07C100.776 210.43 98.8159 205.64 96.6359 200.53ZM314.446 85.9504L314.786 87.1504C316.266 87.5304 317.786 87.9704 319.226 88.2704C337.887 92.064 356.165 97.5431 373.836 104.64C411.946 119.64 446.176 140.7 474.636 170.55C490.306 187 503.466 205.26 512.146 226.31C523.566 254.02 531.276 282.89 536.316 312.43C538.056 322.65 539.316 333.03 536.546 343.27C535.756 346.21 536.456 347.27 538.986 348.38C565.986 360.31 601.436 341.92 602.636 308.96C603.326 290.11 601.476 271.37 598.166 252.87C590.166 207.87 572.716 166.74 546.656 129.09C531.086 106.58 511.466 89.4204 486.656 78.0904C461.052 66.3441 433.216 60.259 405.046 60.2504C377.396 60.1304 350.956 65.6004 326.406 78.7704C322.266 80.9204 318.416 83.5304 314.446 85.9504ZM292.736 168.36L292.266 169.29C292.834 170.312 293.476 171.291 294.186 172.22C301.296 180.38 307.846 189.15 315.716 196.51C332.426 212.14 349.886 226.96 366.886 242.28C370.406 245.45 374.406 247.19 378.716 248.85C392.426 254.13 406.286 259.12 419.566 265.34C453.956 281.568 485.676 302.936 513.636 328.71C514.516 329.51 515.516 330.18 517.066 331.38C517.066 329.49 517.146 328.54 517.066 327.61C514.476 301.18 507.436 275.79 499.066 250.72C498.434 249.306 497.457 248.071 496.226 247.13C481.836 234.49 465.746 224.32 448.856 215.46C403.346 191.58 354.776 177.28 304.076 169.84C300.316 169.29 296.516 168.85 292.736 168.36Z" fill="#05F2AF"/>
</svg>
